<?xml version="1.0" encoding="UTF-8"?>
<svg width="813px" height="768px" viewBox="0 0 813 768" version="1.1" xmlns="http://www.w3.org/2000/svg" xmlns:xlink="http://www.w3.org/1999/xlink">
    <title>undraw_lost_online_wqob</title>
    <g id="Page-1" stroke="none" stroke-width="1" fill="none" fill-rule="evenodd">
        <g id="undraw_lost_online_wqob" transform="translate(0.713210, 0.443440)" fill-rule="nonzero">
            <ellipse id="Oval" fill="#E6E6E6" cx="645.20383" cy="741.55656" rx="167.08296" ry="25"></ellipse>
            <circle id="Oval" fill="#6696C1" cx="578.14577" cy="151.98149" r="71.88313"></circle>
            <circle id="Oval" fill="#FF6584" cx="357.36186" cy="6.16141" r="6.16141"></circle>
            <circle id="Oval" fill="#FF6584" cx="557.60774" cy="418.97598" r="6.16141"></circle>
            <circle id="Oval" fill="#F2F2F2" cx="578.14577" cy="6.16141" r="6.16141"></circle>
            <circle id="Oval" fill="#F2F2F2" cx="664.40553" cy="302.93607" r="6.16141"></circle>
            <circle id="Oval" fill="#F2F2F2" cx="418.97598" cy="172.51952" r="6.16141"></circle>
            <circle id="Oval" fill="#F2F2F2" cx="93.44807" cy="131.44345" r="6.16141"></circle>
            <circle id="Oval" fill="#DF5902" cx="209.48799" cy="387.14202" r="209.48799"></circle>
            <circle id="Oval" fill="#000000" opacity="0.2" cx="200.24587" cy="301.90916" r="30.80706"></circle>
            <circle id="Oval" fill="#000000" opacity="0.2" cx="200.24587" cy="508.31645" r="53.3989"></circle>
            <circle id="Oval" fill="#000000" opacity="0.2" cx="45.18368" cy="427.1912" r="13.34972"></circle>
            <circle id="Oval" fill="#000000" opacity="0.2" cx="571.89267" cy="114.90299" r="7.09663"></circle>
            <circle id="Oval" fill="#000000" opacity="0.2" cx="271.01041" cy="255.58855" r="7.09663"></circle>
            <circle id="Oval" fill="#000000" opacity="0.2" cx="191.00375" cy="396.38414" r="9.24212"></circle>
            <circle id="Oval" fill="#000000" opacity="0.2" cx="554.61872" cy="171.60265" r="7.09663"></circle>
            <circle id="Oval" fill="#000000" opacity="0.2" cx="363.61496" cy="346.17597" r="7.09663"></circle>
            <circle id="Oval" fill="#000000" opacity="0.2" cx="618.21329" cy="164.90945" r="10.25068"></circle>
            <circle id="Oval" fill="#000000" opacity="0.2" cx="305.0082" cy="418.55422" r="10.25068"></circle>
            <circle id="Oval" fill="#000000" opacity="0.2" cx="80.09835" cy="301.90916" r="13.34972"></circle>
            <polygon id="Path" fill="#FFB8B8" points="577.07279 694.65756 578.52779 707.75756 565.42879 706.30156 565.42879 690.29056"></polygon>
            <polygon id="Path" fill="#FFB8B8" points="713.89379 694.65756 712.43779 707.75756 725.53779 706.30156 725.53779 690.29056"></polygon>
            <path d="M575.61712,412.28208 L569.79494,562.20308 C569.79494,562.20308 550.87288,674.27995 555.23951,677.19108 C559.60614,680.10221 555.23951,696.11315 555.23951,696.11315 L579.98375,699.02429 C579.98375,699.02429 579.98375,687.37989 585.80593,683.01324 C591.62811,678.64659 645.48322,473.41494 645.48322,473.41494 L700.79388,671.36894 C700.79388,671.36894 699.33834,683.01329 703.70497,683.01329 C708.0716,683.01329 709.52715,699.02429 709.52715,699.02429 L734.27139,699.02429 L734.27139,683.01329 C734.27139,683.01329 741.54911,681.55775 737.18248,669.9134 C732.81585,658.26905 716.80486,412.28208 716.80486,412.28208 L575.61712,412.28208 Z" id="Path" fill="#2F2E41"></path>
            <path d="M568.3394,694.65756 C568.3394,694.65756 561.06168,690.29093 558.15059,693.20202 C555.2395,696.11311 531.95081,725.22402 531.95081,725.22402 C531.95081,725.22402 499.92881,745.60163 529.03972,751.42381 C558.15063,757.24599 579.98372,729.59065 581.43929,726.67956 C582.89486,723.76847 579.98375,700.47977 578.52821,703.39086 C577.07267,706.30195 572.70603,704.84641 571.25049,703.39086 C569.79495,701.93531 568.3394,694.65756 568.3394,694.65756 Z" id="Path" fill="#2F2E41"></path>
            <path d="M722.62704,694.65756 C722.62704,694.65756 729.90476,690.29093 732.81585,693.20202 C735.72694,696.11311 759.01563,725.22402 759.01563,725.22402 C759.01563,725.22402 791.03763,745.60163 761.92672,751.42381 C732.81581,757.24599 710.98272,729.59065 709.52715,726.67956 C708.07158,723.76847 710.98269,700.47977 712.43823,703.39086 C713.89377,706.30195 718.26041,704.84641 719.71595,703.39086 C721.17149,701.93531 722.62704,694.65756 722.62704,694.65756 Z" id="Path" fill="#2F2E41"></path>
            <circle id="Oval" fill="#FFB8B8" cx="663.67752" cy="167.02296" r="29.83865"></circle>
            <polygon id="Path" fill="#FFB8B8" points="644.02779 183.76156 639.66079 228.88356 674.59379 236.16156 683.32779 182.30656"></polygon>
            <path d="M680.41627,218.69476 C680.41627,218.69476 671.68301,237.61683 639.66104,217.23922 L579.98379,412.28208 C579.98379,412.28208 660.0387,460.31502 710.98273,423.92643 L693.51616,227.42802 L680.41627,218.69476 Z" id="Path" fill="#70BA73"></path>
            <path d="M645.48322,196.86156 L617.82789,192.49493 L614.91679,211.41704 C614.91679,211.41704 577.07265,215.78367 572.70602,230.33911 L577.07265,338.04935 C577.07265,338.04935 563.97276,361.33805 575.61711,375.89349 C575.61711,375.89349 556.69504,415.19317 571.25048,422.47089 C571.25048,422.47089 604.72798,406.45989 625.1056,410.82654 C625.1056,410.82654 636.74995,407.91545 636.74995,399.18219 C636.74995,390.44893 645.48322,196.86156 645.48322,196.86156 Z" id="Path" fill="#2F2E41"></path>
            <path d="M678.96073,199.77269 L694.97173,204.13932 L696.42727,224.51693 C696.42727,224.51693 735.72695,249.26118 737.1825,263.81662 C738.63805,278.37206 708.07162,348.23815 708.07162,348.23815 C708.07162,348.23815 719.71597,368.61577 715.34934,381.71566 C715.34934,381.71566 734.27141,419.5598 722.62706,429.74861 C722.62706,429.74861 700.7939,435.57078 697.88282,426.83752 C694.97174,418.10426 668.77194,317.67174 680.41629,269.63879 C680.41627,269.63879 668.77192,208.50595 678.96073,199.77269 Z" id="Path" fill="#2F2E41"></path>
            <path d="M688.98181,245.778359 L688.530022,245.778359 L688.530022,234.188305 C688.530026,232.409223 687.775324,230.703008 686.431943,229.445008 C685.088562,228.187008 683.266544,227.48028 681.366717,227.48028 L655.145115,227.48028 C653.245287,227.48028 651.42327,228.187008 650.079889,229.445008 C648.736508,230.703008 647.98181,232.409223 647.98181,234.188305 L647.98181,297.772263 C647.98181,299.551343 648.736511,301.257557 650.079892,302.515555 C651.423273,303.773553 653.245289,304.48028 655.145115,304.48028 L681.366717,304.48028 C683.266543,304.48028 685.088559,303.773553 686.43194,302.515555 C687.775321,301.257557 688.530024,299.551343 688.530022,297.772263 L688.530022,254.028356 L688.98181,254.028356 L688.98181,245.778359 Z" id="Path" fill="#FFFFFF"></path>
            <path d="M709.52715,306.02739 C709.52715,306.02739 697.88279,268.18325 680.41627,279.82756 C662.94975,291.47187 692.06062,323.49387 692.06062,323.49387 L709.52715,306.02739 Z" id="Path" fill="#FFB8B8"></path>
            <path d="M629.47224,278.37205 C629.47224,278.37205 649.84985,253.62781 660.03866,265.27216 C670.22747,276.91651 642.57213,303.1163 642.57213,303.1163 L629.47224,278.37205 Z" id="Path" fill="#FFB8B8"></path>
            <path d="M577.07266,228.88356 C577.07266,228.88356 569.79494,227.42801 565.42831,240.52791 C561.06168,253.62781 545.0507,303.11629 545.0507,311.84955 C545.0507,320.58281 550.87288,355.51586 582.89484,349.69369 C614.9168,343.87152 652.76094,303.11629 652.76094,303.11629 L632.38333,272.54987 L588.71701,298.74966 L577.07266,228.88356 Z" id="Path" fill="#2F2E41"></path>
            <polygon id="Path" fill="#000000" opacity="0.1" points="583.36179 266.61856 589.44479 298.02156 634.56679 271.82256 592.35579 287.83356 583.04979 264.74456"></polygon>
            <polygon id="Path" fill="#000000" opacity="0.1" points="711.71079 298.02156 717.53279 302.38856 720.44379 282.01056"></polygon>
            <path d="M576.34489,353.33256 C576.34489,353.33256 619.0982,341.70174 639.20454,316.22296 C639.20454,316.22296 618.55566,350.42147 576.34489,353.33256 Z" id="Path" fill="#000000" opacity="0.1"></path>
            <path d="M684.05513,327.13277 C684.05513,327.13277 693.0578,371.19224 716.2118,372.4512 C716.2118,372.4512 688.42179,380.98789 684.05513,327.13277 Z" id="Path" fill="#000000" opacity="0.1"></path>
            <path d="M731.3603,257.99444 C731.3603,257.99444 735.72693,260.90553 738.63802,274.00544 C741.54911,287.10535 760.47118,336.59382 753.19346,348.23817 C745.91574,359.88252 734.27139,386.08231 709.52715,368.61579 L684.7829,323.49393 L709.52715,300.20523 L719.71595,307.48295 L731.3603,257.99444 Z" id="Path" fill="#2F2E41"></path>
            <path d="M635.03234,174.59074 C635.03234,174.59074 610.00734,134.03295 636.66234,131.92351 C645.557446,131.301359 654.243153,128.934699 662.22434,124.95844 C671.05985,120.46237 682.18168,117.04492 688.10014,123.96605 C690.682916,127.130803 693.69402,129.920283 697.04662,132.25405 C702.24555,135.70192 708.26092,141.29126 704.92998,147.28696 L699.46923,157.1163 L691.82413,176.775 C693.60447,168.29566 693.64925,161.17623 689.09374,157.66237 C689.09374,157.66237 663.67752,168.47847 650.86866,148.92518 C636.52999,138.16689 631.96809,172.02921 635.03234,174.59074 Z" id="Path" fill="#755C1A"></path>
        </g>
    </g>
</svg>